<svg xmlns="http://www.w3.org/2000/svg" viewBox="0 0 1024 1024"><defs><linearGradient id="g" gradientUnits="userSpaceOnUse" x1="180" y1="0" x2="843" y2="0"><stop offset="0" stop-color="#34D58A"/><stop offset="0.5" stop-color="#55A3AE"/><stop offset="1" stop-color="#8E3DC2"/></linearGradient></defs><path d="M180.0 512.0 L183.0 500.0 L186.0 488.1 L189.0 476.2 L192.0 464.4 L195.0 452.8 L198.0 441.4 L201.0 430.2 L204.0 419.3 L207.0 408.7 L210.0 398.4 L213.0 388.5 L216.0 378.9 L219.0 369.9 L222.0 361.2 L225.0 353.1 L228.0 345.4 L231.0 338.4 L234.0 331.8 L237.0 325.9 L240.0 320.5 L243.0 315.8 L246.0 311.7 L249.0 308.3 L252.0 305.5 L255.0 303.3 L258.0 301.9 L261.0 301.1 L264.0 301.0 L267.0 301.6 L270.0 302.9 L273.0 304.9 L276.0 307.5 L279.0 310.8 L282.0 314.7 L285.0 319.3 L288.0 324.5 L291.0 330.3 L294.0 336.7 L297.0 343.6 L300.0 351.1 L303.0 359.1 L306.0 367.6 L309.0 376.6 L312.0 386.0 L315.0 395.9 L318.0 406.1 L321.0 416.6 L324.0 427.5 L327.0 438.6 L330.0 449.9 L333.0 461.5 L336.0 473.2 L339.0 485.1 L342.0 497.0 L345.0 509.0 L348.0 521.0 L351.0 533.0 L354.0 544.9 L357.0 556.7 L360.0 568.3 L363.0 579.8 L366.0 591.0 L369.0 602.0 L372.0 612.7 L375.0 623.1 L378.0 633.1 L381.0 642.7 L384.0 651.9 L387.0 660.7 L390.0 668.9 L393.0 676.7 L396.0 683.9 L399.0 690.6 L402.0 696.7 L405.0 702.2 L408.0 707.1 L411.0 711.3 L414.0 714.9 L417.0 717.9 L420.0 720.2 L423.0 721.8 L426.0 722.7 L429.0 723.0 L432.0 722.6 L435.0 721.5 L438.0 719.7 L441.0 717.2 L444.0 714.1 L447.0 710.3 L450.0 705.9 L453.0 700.9 L456.0 695.2 L459.0 689.0 L462.0 682.2 L465.0 674.8 L468.0 666.9 L471.0 658.5 L474.0 649.7 L477.0 640.3 L480.0 630.6 L483.0 620.5 L486.0 610.1 L489.0 599.3 L492.0 588.2 L495.0 576.9 L498.0 565.4 L501.0 553.7 L504.0 541.9 L507.0 530.0 L510.0 518.0 L513.0 506.0 L516.0 494.0 L519.0 482.1 L522.0 470.3 L525.0 458.6 L528.0 447.1 L531.0 435.8 L534.0 424.7 L537.0 413.9 L540.0 403.5 L543.0 393.4 L546.0 383.7 L549.0 374.3 L552.0 365.5 L555.0 357.1 L558.0 349.2 L561.0 341.8 L564.0 335.0 L567.0 328.8 L570.0 323.1 L573.0 318.1 L576.0 313.7 L579.0 309.9 L582.0 306.8 L585.0 304.3 L588.0 302.5 L591.0 301.4 L594.0 301.0 L597.0 301.3 L600.0 302.2 L603.0 303.8 L606.0 306.1 L609.0 309.1 L612.0 312.7 L615.0 316.9 L618.0 321.8 L621.0 327.3 L624.0 333.4 L627.0 340.1 L630.0 347.3 L633.0 355.1 L636.0 363.3 L639.0 372.1 L642.0 381.3 L645.0 390.9 L648.0 400.9 L651.0 411.3 L654.0 422.0 L657.0 433.0 L660.0 444.2 L663.0 455.7 L666.0 467.3 L669.0 479.1 L672.0 491.0 L675.0 503.0 L678.0 515.0 L681.0 527.0 L684.0 538.9 L687.0 550.8 L690.0 562.5 L693.0 574.1 L696.0 585.4 L699.0 596.5 L702.0 607.4 L705.0 617.9 L708.0 628.1 L711.0 638.0 L714.0 647.4 L717.0 656.4 L720.0 664.9 L723.0 672.9 L726.0 680.4 L729.0 687.3 L732.0 693.7 L735.0 699.5 L738.0 704.7 L741.0 709.3 L744.0 713.2 L747.0 716.5 L750.0 719.1 L753.0 721.1 L756.0 722.4 L759.0 723.0 L762.0 722.9 L765.0 722.1 L768.0 720.7 L771.0 718.5 L774.0 715.7 L777.0 712.3 L780.0 708.2 L783.0 703.5 L786.0 698.1 L789.0 692.2 L792.0 685.6 L795.0 678.6 L798.0 670.9 L801.0 662.8 L804.0 654.1 L807.0 645.1 L810.0 635.5 L813.0 625.6 L816.0 615.3 L819.0 604.7 L822.0 593.8 L825.0 582.6 L828.0 571.2 L831.0 559.6 L834.0 547.8 L837.0 535.9 L840.0 524.0 L843.0 512.0" fill="none" stroke="url(#g)" stroke-width="22" stroke-linecap="round" stroke-linejoin="round"/></svg>